<svg xmlns="http://www.w3.org/2000/svg" viewBox="0 0 512 512" width="512" height="512">
  <!-- Background Circle -->
  <circle cx="256" cy="256" r="256" fill="#4CAF50" />
  
  <!-- Wallet Icon -->
  <g fill="#FFFFFF">
    <!-- Wallet Body -->
    <path d="M128 176c0-17.7 14.3-32 32-32h256c17.7 0 32 14.3 32 32v160c0 17.7-14.3 32-32 32H160c-17.7 0-32-14.3-32-32V176z" />
    
    <!-- Wallet Flap -->
    <path d="M384 208v96c0 8.8 7.2 16 16 16h32c8.8 0 16-7.2 16-16v-96c0-8.8-7.2-16-16-16h-32c-8.8 0-16 7.2-16 16z" fill="#388E3C" />
    
    <!-- Dollar Sign -->
    <path d="M256 144c-13.3 0-24 10.7-24 24v16h-40c-8.8 0-16 7.2-16 16s7.2 16 16 16h40v128h-40c-8.8 0-16 7.2-16 16s7.2 16 16 16h40v16c0 13.3 10.7 24 24 24s24-10.7 24-24v-16h40c8.8 0 16-7.2 16-16s-7.2-16-16-16h-40V216h40c8.8 0 16-7.2 16-16s-7.2-16-16-16h-40v-16c0-13.3-10.7-24-24-24z" fill="#388E3C" />
  </g>
</svg>